<?xml version="1.0" encoding="UTF-8" standalone="no"?>
<!-- Uploaded to: SVG Repo, www.svgrepo.com, Generator: SVG Repo Mixer Tools -->

<svg
   xmlns:dc="http://purl.org/dc/elements/1.1/"
   xmlns:cc="http://creativecommons.org/ns#"
   xmlns:rdf="http://www.w3.org/1999/02/22-rdf-syntax-ns#"
   xmlns:svg="http://www.w3.org/2000/svg"
   xmlns="http://www.w3.org/2000/svg"
   xmlns:sodipodi="http://sodipodi.sourceforge.net/DTD/sodipodi-0.dtd"
   xmlns:inkscape="http://www.inkscape.org/namespaces/inkscape"
   width="800px"
   height="800px"
   viewBox="0 0 1024 1024"
   class="icon"
   version="1.1"
   id="svg859"
   sodipodi:docname="pack.svg"
   inkscape:version="0.92.4 (5da689c313, 2019-01-14)">
  <metadata
     id="metadata865">
    <rdf:RDF>
      <cc:Work
         rdf:about="">
        <dc:format>image/svg+xml</dc:format>
        <dc:type
           rdf:resource="http://purl.org/dc/dcmitype/StillImage" />
        <dc:title></dc:title>
      </cc:Work>
    </rdf:RDF>
  </metadata>
  <defs
     id="defs863" />
  <sodipodi:namedview
     pagecolor="#ffffff"
     bordercolor="#666666"
     borderopacity="1"
     objecttolerance="10"
     gridtolerance="10"
     guidetolerance="10"
     inkscape:pageopacity="0"
     inkscape:pageshadow="2"
     inkscape:window-width="1920"
     inkscape:window-height="1027"
     id="namedview861"
     showgrid="false"
     inkscape:zoom="0.18959301"
     inkscape:cx="918.27163"
     inkscape:cy="-218.75357"
     inkscape:window-x="-8"
     inkscape:window-y="-8"
     inkscape:window-maximized="1"
     inkscape:current-layer="svg859" />
  <path
     d="M510.4 559.2L180.8 734.4V380L510.4 184l324.8 196v354.4z"
     fill="#EEC82D"
     id="path815" />
  <path
     d="M510.4 184l324.8 196v354.4L510.4 559.2z"
     fill="#121519"
     id="path817" />
  <path
     d="M510.4 184L180.8 380v354.4l329.6-175.2z"
     fill="#121519"
     id="path819" />
  <path
     d="M510.4 555.2l-329.6-176v355.2l329.6 196 324.8-196V379.2z"
     fill="#F5CC24"
     id="path821" />
  <path
     d="M510.4 555.2l-329.6-176v355.2l329.6 196 324.8-196V379.2z"
     fill="#D6AB7F"
     id="path823"
     style="fill:#ef9a53;fill-opacity:1" />
  <path
     d="M510.4 938.4c-1.6 0-3.2 0-4-0.8L176.8 741.6c-2.4-1.6-4-4-4-7.2V379.2c0-3.2 1.6-5.6 4-7.2 2.4-1.6 5.6-1.6 8 0l325.6 173.6 320.8-173.6c2.4-1.6 5.6-1.6 8 0 2.4 1.6 4 4 4 7.2v355.2c0 3.2-1.6 5.6-4 7.2l-324.8 196c-0.8 0-2.4 0.8-4 0.8z m-321.6-208l321.6 191.2 316.8-191.2V392.8L514.4 562.4c-2.4 1.6-5.6 1.6-7.2 0L188.8 392.8v337.6z"
     fill="#6A576D"
     id="path825" />
  <path
     d="M510.4 930.4l324.8-196V379.2l-324.8 176z"
     fill="#121519"
     id="path827" />
  <path
     d="M510.4 938.4c-1.6 0-2.4 0-4-0.8-2.4-1.6-4-4-4-7.2V555.2c0-3.2 1.6-5.6 4-7.2l324.8-176c2.4-1.6 5.6-1.6 8 0 2.4 1.6 4 4 4 7.2v355.2c0 3.2-1.6 5.6-4 7.2l-324.8 196c-0.8 0-2.4 0.8-4 0.8z m8-378.4v356l308.8-185.6V392.8L518.4 560z"
     fill="#6A576D"
     id="path829" />
  <path
     d="M252.8 608.8l257.6 145.6V555.2l-329.6-176z"
     fill="#121519"
     id="path831" />
  <path
     d="M32 464.8l148.8-85.6 329.6 176L352 645.6z"
     fill="#FFFFFF"
     id="path833" />
  <path
     d="M32 294.4l148.8 85.6L510.4 184 352.8 93.6z"
     fill="#FFFFFF"
     id="path835" />
  <path
     d="M180.8 388c-1.6 0-2.4 0-4-0.8L28 300.8c-2.4-0.8-4-4-4-6.4 0-3.2 1.6-5.6 4-7.2l320.8-200.8c2.4-1.6 5.6-1.6 8 0l158.4 90.4c2.4 1.6 4 4 4 7.2s-1.6 5.6-4 7.2L184.8 386.4c-0.8 0.8-2.4 1.6-4 1.6zM47.2 293.6l133.6 76.8L495.2 184 352.8 103.2 47.2 293.6z"
     fill="#6A576D"
     id="path837" />
  <path
     d="m 648.96,708.64 176,-90.4 v -228 l -322.4,173.6 -2.4,1.6 z"
     id="path839"
     inkscape:connector-curvature="0"
     style="fill:#121519" />
  <path
     d="M510.4 555.2l148.8 85.6L992 469.6l-156.8-89.6z"
     fill="#FFFFFF"
     id="path841" />
  <path
     d="M352 653.6c-1.6 0-2.4 0-4-0.8L28 472c-2.4-1.6-4-4-4-7.2s1.6-5.6 4-7.2l148.8-85.6c2.4-1.6 5.6-1.6 8 0l329.6 176c2.4 1.6 4 4 4 7.2s-1.6 5.6-4 7.2L356 652.8c-0.8 0.8-2.4 0.8-4 0.8zM48 464.8l304 171.2 141.6-80.8-312.8-166.4L48 464.8z"
     fill="#6A576D"
     id="path843" />
  <path
     d="M659.2 648.8c-1.6 0-2.4 0-4-0.8L506.4 562.4c-2.4-1.6-4-4-4-7.2s1.6-5.6 4-7.2l324.8-176c2.4-1.6 5.6-1.6 8 0l156.8 90.4c2.4 1.6 4 4 4 7.2s-1.6 5.6-4 7.2L663.2 648c-1.6 0.8-2.4 0.8-4 0.8zM527.2 555.2L660 632 976 469.6l-140.8-80.8-308 166.4z"
     fill="#6A576D"
     id="path845" />
  <path
     d="M510.4 184l149.6-85.6L992 289.6l-156.8 90.4z"
     fill="#FFFFFF"
     id="path847" />
  <path
     d="M835.2 388c-1.6 0-3.2 0-4-0.8L506.4 191.2c-2.4-1.6-4-4-4-7.2s1.6-5.6 4-7.2L656 92c2.4-1.6 5.6-1.6 8 0l332 191.2c2.4 1.6 4 4 4 7.2s-1.6 5.6-4 7.2l-156.8 90.4c-1.6-0.8-3.2 0-4 0zM526.4 184l308.8 186.4L976 289.6 660 108 526.4 184z"
     fill="#6A576D"
     id="path849" />
  <path
     d="M510.4 120L180.8 296v84l329.6 175.2 324.8-175.2V295.2z"
     fill="#9DD2A0"
     id="path851"
     style="fill:#852999;fill-opacity:1" />
  <path
     d="M510.4 563.2c-1.6 0-2.4 0-4-0.8L177.6 387.2c-2.4-1.6-4-4-4-7.2V296c0-3.2 1.6-5.6 4-7.2l329.6-176c2.4-1.6 5.6-1.6 7.2 0L838.4 288c2.4 1.6 4 4 4 7.2v84.8c0 3.2-1.6 5.6-4 7.2l-324.8 176h-3.2zM188.8 375.2l321.6 170.4 316.8-171.2v-75.2L510.4 129.6 188.8 300.8v74.4z"
     fill="#6A576D"
     id="path853" />
  <path
     d="M510.4 471.2L180.8 296v84l329.6 175.2z"
     fill="#121519"
     id="path855" />
  <path
     d="M510.4 471.2l324.8-176v84.8L510.4 555.2z"
     fill="#121519"
     id="path857" />
</svg>
